<?xml version="1.0" standalone="no"?>
<!DOCTYPE svg PUBLIC "-//W3C//DTD SVG 20010904//EN"
 "http://www.w3.org/TR/2001/REC-SVG-20010904/DTD/svg10.dtd">
<svg version="1.0" xmlns="http://www.w3.org/2000/svg"
 width="512.000000pt" height="512.000000pt" viewBox="0 0 512.000000 512.000000"
 preserveAspectRatio="xMidYMid meet">
<metadata>
Created by potrace 1.11, written by Peter Selinger 2001-2013
</metadata>
<g transform="translate(0.000000,512.000000) scale(0.100000,-0.100000)"
fill="#000000" stroke="none">
<path d="M0 2560 l0 -2560 2560 0 2560 0 0 2560 0 2560 -2560 0 -2560 0 0
-2560z m2057 854 c22 -6 22 -7 4 -23 -37 -33 -588 -720 -623 -778 -13 -21 -29
-54 -35 -74 -10 -37 -10 -37 43 -75 30 -22 54 -42 54 -47 0 -4 -28 14 -62 41
-98 76 -202 132 -355 193 -116 45 -202 96 -224 132 -57 94 6 207 182 326 239
162 581 277 887 301 53 4 99 8 102 8 3 1 15 -1 27 -4z m91 -11 c-10 -2 -26 -2
-35 0 -10 3 -2 5 17 5 19 0 27 -2 18 -5z m97 -13 l20 -9 -20 1 c-11 0 -33 4
-50 8 l-30 8 30 0 c17 0 39 -3 50 -8z m1144 -1230 c0 -10 -3 -8 -9 5 -12 27
-12 43 0 25 5 -8 9 -22 9 -30z m28 -276 c-10 -214 -68 -427 -182 -659 -114
-232 -250 -380 -360 -393 -95 -10 -133 31 -233 253 -61 137 -121 235 -196 323
-25 30 -46 56 -46 59 0 8 79 -81 80 -89 0 -16 57 -7 105 16 43 21 274 201 697
546 112 91 117 97 119 135 1 39 2 38 11 -15 5 -30 7 -109 5 -176z m-1750 69
c43 -50 160 -167 316 -316 l40 -37 -5 -83 c-5 -101 -29 -158 -94 -227 -122
-130 -402 -242 -609 -244 -86 -1 -107 2 -148 23 -154 75 -155 335 -2 646 103
211 208 293 381 294 l71 1 50 -57z"/>
</g>
</svg>
